<svg width="400" height="400" fill="none" xmlns="http://www.w3.org/2000/svg">
  <style>
    path {
      fill: #D0111B;
    }
    @media (prefers-color-scheme: dark) {
      path {
        fill: #fff;
      }
    }
  </style>
  <path fill-rule="evenodd" clip-rule="evenodd" d="M200 395c107.696 0 195-87.304 195-195C395 92.305 307.696 5 200 5 92.305 5 5 92.305 5 200c0 107.696 87.305 195 195 195zm0 5c110.457 0 200-89.543 200-200S310.457 0 200 0 0 89.543 0 200s89.543 200 200 200z" fill="#D0111B"/><path fill-rule="evenodd" clip-rule="evenodd" d="M200 380c99.411 0 180-80.589 180-180S299.411 20 200 20 20 100.589 20 200s80.589 180 180 180zm0 5c102.173 0 185-82.827 185-185S302.173 15 200 15 15 97.827 15 200s82.827 185 185 185z" fill="#D0111B"/><path fill-rule="evenodd" clip-rule="evenodd" d="M200 370c93.888 0 170-76.112 170-170S293.888 30 200 30 30 106.112 30 200s76.112 170 170 170zm22.916-168.19h15.361v109.648c0 3.667 1.337 6.84 4.015 9.517 2.636 2.635 5.754 3.961 9.345 4.003 3.588-.042 6.708-1.369 9.345-4.003 2.679-2.677 4.019-5.85 4.019-9.517V86.767c0-1.83-.672-3.417-2.009-4.757-1.341-1.338-2.925-2.01-4.757-2.01h-4.863c-9.306 0-17.272 3.314-23.897 9.94-6.625 6.627-9.939 14.593-9.939 23.897v84.59c0 .917.336 1.71 1.005 2.379.665.669 1.459 1.004 2.375 1.004zm-71.054-12.29v119.162c0 3.668 1.337 6.84 4.019 9.518 2.634 2.635 5.751 3.96 9.342 4.002 3.589-.042 6.709-1.368 9.345-4.002 2.679-2.678 4.016-5.85 4.016-9.518V189.52c4.019-1.407 19.085-10.126 19.085-40.631v-56.57c0-1.83-.672-3.418-2.01-4.758-1.34-1.338-2.928-2.01-4.757-2.01-1.835 0-3.42.672-4.757 2.01-1.341 1.343-2.01 2.928-2.01 4.757v43.987c0 1.835-.672 3.42-2.01 4.758-1.34 1.34-2.925 2.006-4.757 2.006-1.835 0-3.42-.666-4.757-2.006-1.338-1.338-2.01-2.926-2.01-4.758V92.318c0-1.829-.672-3.417-2.01-4.757-1.337-1.338-2.925-2.01-4.757-2.01-1.834 0-3.419.672-4.757 2.01-1.341 1.343-2.01 2.928-2.01 4.757v43.987c0 1.835-.671 3.42-2.009 4.758-1.341 1.34-2.926 2.006-4.758 2.006-1.834 0-3.419-.666-4.757-2.006-1.341-1.338-2.009-2.926-2.009-4.758V92.318c0-1.829-.669-3.417-2.01-4.757-1.338-1.338-2.925-2.01-4.757-2.01-1.835 0-3.42.672-4.757 2.01-1.338 1.343-2.01 2.928-2.01 4.757v56.569c0 31.044 17.842 39.223 21.862 40.633z" fill="#D0111B"/>
</svg>
